<svg width="32" height="32" viewBox="0 0 32 32" fill="none" xmlns="http://www.w3.org/2000/svg">
<path d="M29.5385 12.3077V19.6923L32 17.2308V14.7692L29.5385 12.3077Z" fill="#3B82F6"/>
<path d="M2.46154 12.3077V19.6923L0 17.2308V14.7692L2.46154 12.3077Z" fill="#3B82F6"/>
<path d="M12.3077 2.46154L9.84615 4.92307V27.0769L12.3077 29.5385V2.46154Z" fill="#3B82F6"/>
<path d="M19.6923 2.46154L22.1538 4.92308V27.0769L19.6923 29.5385V2.46154Z" fill="#3B82F6"/>
<path d="M16 0L14.7692 1.45455V30.9147L16 32L17.2308 30.9147V1.45455L16 0Z" fill="white"/>
<path d="M27.0769 9.84615L24.6154 7.38461V14.7692L27.0769 12.3077V9.84615Z" fill="#3B82F6"/>
<path d="M4.92308 9.84615L7.38461 7.38461V14.7692L4.92308 12.9231V9.84615Z" fill="#3B82F6"/>
<path d="M27.0769 14.7692L24.6154 17.2308V19.6923L27.0769 17.2308V14.7692Z" fill="#3B82F6"/>
<path d="M4.92308 14.7692L7.38461 17.2308V19.6923L4.92308 17.2308V14.7692Z" fill="#3B82F6"/>
<path d="M24.6154 22.1538L27.0769 19.6923V22.1538L24.6154 24.6154V22.1538Z" fill="#3B82F6"/>
<path d="M7.38461 22.1538L4.92308 19.6923V22.1538L7.38461 24.6154V22.1538Z" fill="#3B82F6"/>
</svg>
