<svg width="724" height="135" viewBox="0 0 724 135" fill="none" xmlns="http://www.w3.org/2000/svg">
<path d="M162 86H147.636V39.4545H162.636C167.152 39.4545 171.015 40.3864 174.227 42.25C177.439 44.0985 179.902 46.7576 181.614 50.2273C183.326 53.6818 184.182 57.8182 184.182 62.6364C184.182 67.4848 183.318 71.6591 181.591 75.1591C179.864 78.6439 177.348 81.3258 174.045 83.2045C170.742 85.0682 166.727 86 162 86ZM153.273 81H161.636C165.485 81 168.674 80.2576 171.205 78.7727C173.735 77.2879 175.621 75.1742 176.864 72.4318C178.106 69.6894 178.727 66.4242 178.727 62.6364C178.727 58.8788 178.114 55.6439 176.886 52.9318C175.659 50.2045 173.826 48.1136 171.386 46.6591C168.947 45.1894 165.909 44.4545 162.273 44.4545H153.273V81ZM207.091 86.7273C203.939 86.7273 201.174 85.9773 198.795 84.4773C196.432 82.9773 194.583 80.8788 193.25 78.1818C191.932 75.4848 191.273 72.3333 191.273 68.7273C191.273 65.0909 191.932 61.9167 193.25 59.2045C194.583 56.4924 196.432 54.3864 198.795 52.8864C201.174 51.3864 203.939 50.6364 207.091 50.6364C210.242 50.6364 213 51.3864 215.364 52.8864C217.742 54.3864 219.591 56.4924 220.909 59.2045C222.242 61.9167 222.909 65.0909 222.909 68.7273C222.909 72.3333 222.242 75.4848 220.909 78.1818C219.591 80.8788 217.742 82.9773 215.364 84.4773C213 85.9773 210.242 86.7273 207.091 86.7273ZM207.091 81.9091C209.485 81.9091 211.455 81.2955 213 80.0682C214.545 78.8409 215.689 77.2273 216.432 75.2273C217.174 73.2273 217.545 71.0606 217.545 68.7273C217.545 66.3939 217.174 64.2197 216.432 62.2045C215.689 60.1894 214.545 58.5606 213 57.3182C211.455 56.0758 209.485 55.4545 207.091 55.4545C204.697 55.4545 202.727 56.0758 201.182 57.3182C199.636 58.5606 198.492 60.1894 197.75 62.2045C197.008 64.2197 196.636 66.3939 196.636 68.7273C196.636 71.0606 197.008 73.2273 197.75 75.2273C198.492 77.2273 199.636 78.8409 201.182 80.0682C202.727 81.2955 204.697 81.9091 207.091 81.9091ZM231.097 86V51.0909H236.278V56.5455H236.733C237.46 54.6818 238.634 53.2348 240.256 52.2045C241.877 51.1591 243.824 50.6364 246.097 50.6364C248.4 50.6364 250.316 51.1591 251.847 52.2045C253.392 53.2348 254.597 54.6818 255.46 56.5455H255.824C256.718 54.7424 258.059 53.3106 259.847 52.25C261.634 51.1742 263.778 50.6364 266.278 50.6364C269.4 50.6364 271.953 51.6136 273.938 53.5682C275.922 55.5076 276.915 58.5303 276.915 62.6364V86H271.551V62.6364C271.551 60.0606 270.847 58.2197 269.438 57.1136C268.028 56.0076 266.369 55.4545 264.46 55.4545C262.006 55.4545 260.104 56.197 258.756 57.6818C257.407 59.1515 256.733 61.0152 256.733 63.2727V86H251.278V62.0909C251.278 60.1061 250.634 58.5076 249.347 57.2955C248.059 56.0682 246.4 55.4545 244.369 55.4545C242.975 55.4545 241.672 55.8258 240.46 56.5682C239.263 57.3106 238.294 58.3409 237.551 59.6591C236.824 60.9621 236.46 62.4697 236.46 64.1818V86H231.097ZM286.722 86V51.0909H292.085V86H286.722ZM289.449 45.2727C288.403 45.2727 287.502 44.9167 286.744 44.2045C286.002 43.4924 285.631 42.6364 285.631 41.6364C285.631 40.6364 286.002 39.7803 286.744 39.0682C287.502 38.3561 288.403 38 289.449 38C290.494 38 291.388 38.3561 292.131 39.0682C292.888 39.7803 293.267 40.6364 293.267 41.6364C293.267 42.6364 292.888 43.4924 292.131 44.2045C291.388 44.9167 290.494 45.2727 289.449 45.2727ZM307.273 65V86H301.909V51.0909H307.091V56.5455H307.545C308.364 54.7727 309.606 53.3485 311.273 52.2727C312.939 51.1818 315.091 50.6364 317.727 50.6364C320.091 50.6364 322.159 51.1212 323.932 52.0909C325.705 53.0455 327.083 54.5 328.068 56.4545C329.053 58.3939 329.545 60.8485 329.545 63.8182V86H324.182V64.1818C324.182 61.4394 323.47 59.303 322.045 57.7727C320.621 56.2273 318.667 55.4545 316.182 55.4545C314.47 55.4545 312.939 55.8258 311.591 56.5682C310.258 57.3106 309.205 58.3939 308.432 59.8182C307.659 61.2424 307.273 62.9697 307.273 65ZM339.347 86V51.0909H344.71V86H339.347ZM342.074 45.2727C341.028 45.2727 340.127 44.9167 339.369 44.2045C338.627 43.4924 338.256 42.6364 338.256 41.6364C338.256 40.6364 338.627 39.7803 339.369 39.0682C340.127 38.3561 341.028 38 342.074 38C343.119 38 344.013 38.3561 344.756 39.0682C345.513 39.7803 345.892 40.6364 345.892 41.6364C345.892 42.6364 345.513 43.4924 344.756 44.2045C344.013 44.9167 343.119 45.2727 342.074 45.2727ZM368.716 86.7273C365.564 86.7273 362.799 85.9773 360.42 84.4773C358.057 82.9773 356.208 80.8788 354.875 78.1818C353.557 75.4848 352.898 72.3333 352.898 68.7273C352.898 65.0909 353.557 61.9167 354.875 59.2045C356.208 56.4924 358.057 54.3864 360.42 52.8864C362.799 51.3864 365.564 50.6364 368.716 50.6364C371.867 50.6364 374.625 51.3864 376.989 52.8864C379.367 54.3864 381.216 56.4924 382.534 59.2045C383.867 61.9167 384.534 65.0909 384.534 68.7273C384.534 72.3333 383.867 75.4848 382.534 78.1818C381.216 80.8788 379.367 82.9773 376.989 84.4773C374.625 85.9773 371.867 86.7273 368.716 86.7273ZM368.716 81.9091C371.11 81.9091 373.08 81.2955 374.625 80.0682C376.17 78.8409 377.314 77.2273 378.057 75.2273C378.799 73.2273 379.17 71.0606 379.17 68.7273C379.17 66.3939 378.799 64.2197 378.057 62.2045C377.314 60.1894 376.17 58.5606 374.625 57.3182C373.08 56.0758 371.11 55.4545 368.716 55.4545C366.322 55.4545 364.352 56.0758 362.807 57.3182C361.261 58.5606 360.117 60.1894 359.375 62.2045C358.633 64.2197 358.261 66.3939 358.261 68.7273C358.261 71.0606 358.633 73.2273 359.375 75.2273C360.117 77.2273 361.261 78.8409 362.807 80.0682C364.352 81.2955 366.322 81.9091 368.716 81.9091ZM398.085 65V86H392.722V51.0909H397.903V56.5455H398.358C399.176 54.7727 400.419 53.3485 402.085 52.2727C403.752 51.1818 405.903 50.6364 408.54 50.6364C410.903 50.6364 412.972 51.1212 414.744 52.0909C416.517 53.0455 417.896 54.5 418.881 56.4545C419.866 58.3939 420.358 60.8485 420.358 63.8182V86H414.994V64.1818C414.994 61.4394 414.282 59.303 412.858 57.7727C411.434 56.2273 409.479 55.4545 406.994 55.4545C405.282 55.4545 403.752 55.8258 402.403 56.5682C401.07 57.3106 400.017 58.3939 399.244 59.8182C398.472 61.2424 398.085 62.9697 398.085 65Z" fill="#3B82F6"/>
<path d="M445.25 86H430.886V39.4545H445.886C450.402 39.4545 454.265 40.3864 457.477 42.25C460.689 44.0985 463.152 46.7576 464.864 50.2273C466.576 53.6818 467.432 57.8182 467.432 62.6364C467.432 67.4848 466.568 71.6591 464.841 75.1591C463.114 78.6439 460.598 81.3258 457.295 83.2045C453.992 85.0682 449.977 86 445.25 86ZM436.523 81H444.886C448.735 81 451.924 80.2576 454.455 78.7727C456.985 77.2879 458.871 75.1742 460.114 72.4318C461.356 69.6894 461.977 66.4242 461.977 62.6364C461.977 58.8788 461.364 55.6439 460.136 52.9318C458.909 50.2045 457.076 48.1136 454.636 46.6591C452.197 45.1894 449.159 44.4545 445.523 44.4545H436.523V81ZM490.795 86.7273C487.432 86.7273 484.53 85.9848 482.091 84.5C479.667 83 477.795 80.9091 476.477 78.2273C475.174 75.5303 474.523 72.3939 474.523 68.8182C474.523 65.2424 475.174 62.0909 476.477 59.3636C477.795 56.6212 479.629 54.4848 481.977 52.9545C484.341 51.4091 487.098 50.6364 490.25 50.6364C492.068 50.6364 493.864 50.9394 495.636 51.5455C497.409 52.1515 499.023 53.1364 500.477 54.5C501.932 55.8485 503.091 57.6364 503.955 59.8636C504.818 62.0909 505.25 64.8333 505.25 68.0909V70.3636H478.341V65.7273H499.795C499.795 63.7576 499.402 62 498.614 60.4545C497.841 58.9091 496.735 57.6894 495.295 56.7955C493.871 55.9015 492.189 55.4545 490.25 55.4545C488.114 55.4545 486.265 55.9848 484.705 57.0455C483.159 58.0909 481.97 59.4545 481.136 61.1364C480.303 62.8182 479.886 64.6212 479.886 66.5455V69.6364C479.886 72.2727 480.341 74.5076 481.25 76.3409C482.174 78.1591 483.455 79.5455 485.091 80.5C486.727 81.4394 488.629 81.9091 490.795 81.9091C492.205 81.9091 493.477 81.7121 494.614 81.3182C495.765 80.9091 496.758 80.303 497.591 79.5C498.424 78.6818 499.068 77.6667 499.523 76.4545L504.705 77.9091C504.159 79.6667 503.242 81.2121 501.955 82.5455C500.667 83.8636 499.076 84.8939 497.182 85.6364C495.288 86.3636 493.159 86.7273 490.795 86.7273ZM538.136 58.9091L533.318 60.2727C533.015 59.4697 532.568 58.6894 531.977 57.9318C531.402 57.1591 530.614 56.5227 529.614 56.0227C528.614 55.5227 527.333 55.2727 525.773 55.2727C523.636 55.2727 521.856 55.7652 520.432 56.75C519.023 57.7197 518.318 58.9545 518.318 60.4545C518.318 61.7879 518.803 62.8409 519.773 63.6136C520.742 64.3864 522.258 65.0303 524.318 65.5455L529.5 66.8182C532.621 67.5758 534.947 68.7348 536.477 70.2955C538.008 71.8409 538.773 73.8333 538.773 76.2727C538.773 78.2727 538.197 80.0606 537.045 81.6364C535.909 83.2121 534.318 84.4545 532.273 85.3636C530.227 86.2727 527.848 86.7273 525.136 86.7273C521.576 86.7273 518.629 85.9545 516.295 84.4091C513.962 82.8636 512.485 80.6061 511.864 77.6364L516.955 76.3636C517.439 78.2424 518.356 79.6515 519.705 80.5909C521.068 81.5303 522.848 82 525.045 82C527.545 82 529.53 81.4697 531 80.4091C532.485 79.3333 533.227 78.0455 533.227 76.5455C533.227 75.3333 532.803 74.3182 531.955 73.5C531.106 72.6667 529.803 72.0455 528.045 71.6364L522.227 70.2727C519.03 69.5152 516.682 68.3409 515.182 66.75C513.697 65.1439 512.955 63.1364 512.955 60.7273C512.955 58.7576 513.508 57.0152 514.614 55.5C515.735 53.9848 517.258 52.7955 519.182 51.9318C521.121 51.0682 523.318 50.6364 525.773 50.6364C529.227 50.6364 531.939 51.3939 533.909 52.9091C535.894 54.4242 537.303 56.4242 538.136 58.9091ZM551.847 73.2727L551.756 66.6364H552.847L568.119 51.0909H574.756L558.483 67.5455H558.028L551.847 73.2727ZM546.847 86V39.4545H552.21V86H546.847ZM569.028 86L555.392 68.7273L559.21 65L575.847 86H569.028Z" fill="#0A2D67"/>
<path d="M120 50V80L130 70V60L120 50Z" fill="#0A2D67"/>
<path d="M10 50V80L0 70V60L10 50Z" fill="#0A2D67"/>
<path d="M50 10L40 20V110L50 120V10Z" fill="#0A2D67"/>
<path d="M80 10L90 20V110L80 120V10Z" fill="#0A2D67"/>
<path d="M65 0L60 5.90909V125.591L65 130L70 125.591V5.90909L65 0Z" fill="#0A2D67"/>
<path d="M110 40L100 30V60L110 52.5V40Z" fill="#0A2D67"/>
<path d="M20 40L30 30V60L20 52.5V40Z" fill="#0A2D67"/>
<path d="M110 60L100 70V80L110 70V60Z" fill="#0A2D67"/>
<path d="M20 60L30 70V80L20 70V60Z" fill="#0A2D67"/>
<path d="M100 90L110 80V90L100 100V90Z" fill="#0A2D67"/>
<path d="M30 90L20 80V90L30 100V90Z" fill="#0A2D67"/>
</svg>
