<svg width="720" height="135" viewBox="0 0 720 135" fill="none" xmlns="http://www.w3.org/2000/svg">
<path d="M158 86H143.636V39.4545H158.636C163.152 39.4545 167.015 40.3864 170.227 42.25C173.439 44.0985 175.902 46.7576 177.614 50.2273C179.326 53.6818 180.182 57.8182 180.182 62.6364C180.182 67.4848 179.318 71.6591 177.591 75.1591C175.864 78.6439 173.348 81.3258 170.045 83.2045C166.742 85.0682 162.727 86 158 86ZM149.273 81H157.636C161.485 81 164.674 80.2576 167.205 78.7727C169.735 77.2879 171.621 75.1742 172.864 72.4318C174.106 69.6894 174.727 66.4242 174.727 62.6364C174.727 58.8788 174.114 55.6439 172.886 52.9318C171.659 50.2045 169.826 48.1136 167.386 46.6591C164.947 45.1894 161.909 44.4545 158.273 44.4545H149.273V81ZM203.091 86.7273C199.939 86.7273 197.174 85.9773 194.795 84.4773C192.432 82.9773 190.583 80.8788 189.25 78.1818C187.932 75.4848 187.273 72.3333 187.273 68.7273C187.273 65.0909 187.932 61.9167 189.25 59.2045C190.583 56.4924 192.432 54.3864 194.795 52.8864C197.174 51.3864 199.939 50.6364 203.091 50.6364C206.242 50.6364 209 51.3864 211.364 52.8864C213.742 54.3864 215.591 56.4924 216.909 59.2045C218.242 61.9167 218.909 65.0909 218.909 68.7273C218.909 72.3333 218.242 75.4848 216.909 78.1818C215.591 80.8788 213.742 82.9773 211.364 84.4773C209 85.9773 206.242 86.7273 203.091 86.7273ZM203.091 81.9091C205.485 81.9091 207.455 81.2955 209 80.0682C210.545 78.8409 211.689 77.2273 212.432 75.2273C213.174 73.2273 213.545 71.0606 213.545 68.7273C213.545 66.3939 213.174 64.2197 212.432 62.2045C211.689 60.1894 210.545 58.5606 209 57.3182C207.455 56.0758 205.485 55.4545 203.091 55.4545C200.697 55.4545 198.727 56.0758 197.182 57.3182C195.636 58.5606 194.492 60.1894 193.75 62.2045C193.008 64.2197 192.636 66.3939 192.636 68.7273C192.636 71.0606 193.008 73.2273 193.75 75.2273C194.492 77.2273 195.636 78.8409 197.182 80.0682C198.727 81.2955 200.697 81.9091 203.091 81.9091ZM227.097 86V51.0909H232.278V56.5455H232.733C233.46 54.6818 234.634 53.2348 236.256 52.2045C237.877 51.1591 239.824 50.6364 242.097 50.6364C244.4 50.6364 246.316 51.1591 247.847 52.2045C249.392 53.2348 250.597 54.6818 251.46 56.5455H251.824C252.718 54.7424 254.059 53.3106 255.847 52.25C257.634 51.1742 259.778 50.6364 262.278 50.6364C265.4 50.6364 267.953 51.6136 269.938 53.5682C271.922 55.5076 272.915 58.5303 272.915 62.6364V86H267.551V62.6364C267.551 60.0606 266.847 58.2197 265.438 57.1136C264.028 56.0076 262.369 55.4545 260.46 55.4545C258.006 55.4545 256.104 56.197 254.756 57.6818C253.407 59.1515 252.733 61.0152 252.733 63.2727V86H247.278V62.0909C247.278 60.1061 246.634 58.5076 245.347 57.2955C244.059 56.0682 242.4 55.4545 240.369 55.4545C238.975 55.4545 237.672 55.8258 236.46 56.5682C235.263 57.3106 234.294 58.3409 233.551 59.6591C232.824 60.9621 232.46 62.4697 232.46 64.1818V86H227.097ZM282.722 86V51.0909H288.085V86H282.722ZM285.449 45.2727C284.403 45.2727 283.502 44.9167 282.744 44.2045C282.002 43.4924 281.631 42.6364 281.631 41.6364C281.631 40.6364 282.002 39.7803 282.744 39.0682C283.502 38.3561 284.403 38 285.449 38C286.494 38 287.388 38.3561 288.131 39.0682C288.888 39.7803 289.267 40.6364 289.267 41.6364C289.267 42.6364 288.888 43.4924 288.131 44.2045C287.388 44.9167 286.494 45.2727 285.449 45.2727ZM303.273 65V86H297.909V51.0909H303.091V56.5455H303.545C304.364 54.7727 305.606 53.3485 307.273 52.2727C308.939 51.1818 311.091 50.6364 313.727 50.6364C316.091 50.6364 318.159 51.1212 319.932 52.0909C321.705 53.0455 323.083 54.5 324.068 56.4545C325.053 58.3939 325.545 60.8485 325.545 63.8182V86H320.182V64.1818C320.182 61.4394 319.47 59.303 318.045 57.7727C316.621 56.2273 314.667 55.4545 312.182 55.4545C310.47 55.4545 308.939 55.8258 307.591 56.5682C306.258 57.3106 305.205 58.3939 304.432 59.8182C303.659 61.2424 303.273 62.9697 303.273 65ZM335.347 86V51.0909H340.71V86H335.347ZM338.074 45.2727C337.028 45.2727 336.127 44.9167 335.369 44.2045C334.627 43.4924 334.256 42.6364 334.256 41.6364C334.256 40.6364 334.627 39.7803 335.369 39.0682C336.127 38.3561 337.028 38 338.074 38C339.119 38 340.013 38.3561 340.756 39.0682C341.513 39.7803 341.892 40.6364 341.892 41.6364C341.892 42.6364 341.513 43.4924 340.756 44.2045C340.013 44.9167 339.119 45.2727 338.074 45.2727ZM364.716 86.7273C361.564 86.7273 358.799 85.9773 356.42 84.4773C354.057 82.9773 352.208 80.8788 350.875 78.1818C349.557 75.4848 348.898 72.3333 348.898 68.7273C348.898 65.0909 349.557 61.9167 350.875 59.2045C352.208 56.4924 354.057 54.3864 356.42 52.8864C358.799 51.3864 361.564 50.6364 364.716 50.6364C367.867 50.6364 370.625 51.3864 372.989 52.8864C375.367 54.3864 377.216 56.4924 378.534 59.2045C379.867 61.9167 380.534 65.0909 380.534 68.7273C380.534 72.3333 379.867 75.4848 378.534 78.1818C377.216 80.8788 375.367 82.9773 372.989 84.4773C370.625 85.9773 367.867 86.7273 364.716 86.7273ZM364.716 81.9091C367.11 81.9091 369.08 81.2955 370.625 80.0682C372.17 78.8409 373.314 77.2273 374.057 75.2273C374.799 73.2273 375.17 71.0606 375.17 68.7273C375.17 66.3939 374.799 64.2197 374.057 62.2045C373.314 60.1894 372.17 58.5606 370.625 57.3182C369.08 56.0758 367.11 55.4545 364.716 55.4545C362.322 55.4545 360.352 56.0758 358.807 57.3182C357.261 58.5606 356.117 60.1894 355.375 62.2045C354.633 64.2197 354.261 66.3939 354.261 68.7273C354.261 71.0606 354.633 73.2273 355.375 75.2273C356.117 77.2273 357.261 78.8409 358.807 80.0682C360.352 81.2955 362.322 81.9091 364.716 81.9091ZM394.085 65V86H388.722V51.0909H393.903V56.5455H394.358C395.176 54.7727 396.419 53.3485 398.085 52.2727C399.752 51.1818 401.903 50.6364 404.54 50.6364C406.903 50.6364 408.972 51.1212 410.744 52.0909C412.517 53.0455 413.896 54.5 414.881 56.4545C415.866 58.3939 416.358 60.8485 416.358 63.8182V86H410.994V64.1818C410.994 61.4394 410.282 59.303 408.858 57.7727C407.434 56.2273 405.479 55.4545 402.994 55.4545C401.282 55.4545 399.752 55.8258 398.403 56.5682C397.07 57.3106 396.017 58.3939 395.244 59.8182C394.472 61.2424 394.085 62.9697 394.085 65Z" fill="#3B82F6"/>
<path d="M441.25 86H426.886V39.4545H441.886C446.402 39.4545 450.265 40.3864 453.477 42.25C456.689 44.0985 459.152 46.7576 460.864 50.2273C462.576 53.6818 463.432 57.8182 463.432 62.6364C463.432 67.4848 462.568 71.6591 460.841 75.1591C459.114 78.6439 456.598 81.3258 453.295 83.2045C449.992 85.0682 445.977 86 441.25 86ZM432.523 81H440.886C444.735 81 447.924 80.2576 450.455 78.7727C452.985 77.2879 454.871 75.1742 456.114 72.4318C457.356 69.6894 457.977 66.4242 457.977 62.6364C457.977 58.8788 457.364 55.6439 456.136 52.9318C454.909 50.2045 453.076 48.1136 450.636 46.6591C448.197 45.1894 445.159 44.4545 441.523 44.4545H432.523V81ZM486.795 86.7273C483.432 86.7273 480.53 85.9848 478.091 84.5C475.667 83 473.795 80.9091 472.477 78.2273C471.174 75.5303 470.523 72.3939 470.523 68.8182C470.523 65.2424 471.174 62.0909 472.477 59.3636C473.795 56.6212 475.629 54.4848 477.977 52.9545C480.341 51.4091 483.098 50.6364 486.25 50.6364C488.068 50.6364 489.864 50.9394 491.636 51.5455C493.409 52.1515 495.023 53.1364 496.477 54.5C497.932 55.8485 499.091 57.6364 499.955 59.8636C500.818 62.0909 501.25 64.8333 501.25 68.0909V70.3636H474.341V65.7273H495.795C495.795 63.7576 495.402 62 494.614 60.4545C493.841 58.9091 492.735 57.6894 491.295 56.7955C489.871 55.9015 488.189 55.4545 486.25 55.4545C484.114 55.4545 482.265 55.9848 480.705 57.0455C479.159 58.0909 477.97 59.4545 477.136 61.1364C476.303 62.8182 475.886 64.6212 475.886 66.5455V69.6364C475.886 72.2727 476.341 74.5076 477.25 76.3409C478.174 78.1591 479.455 79.5455 481.091 80.5C482.727 81.4394 484.629 81.9091 486.795 81.9091C488.205 81.9091 489.477 81.7121 490.614 81.3182C491.765 80.9091 492.758 80.303 493.591 79.5C494.424 78.6818 495.068 77.6667 495.523 76.4545L500.705 77.9091C500.159 79.6667 499.242 81.2121 497.955 82.5455C496.667 83.8636 495.076 84.8939 493.182 85.6364C491.288 86.3636 489.159 86.7273 486.795 86.7273ZM534.136 58.9091L529.318 60.2727C529.015 59.4697 528.568 58.6894 527.977 57.9318C527.402 57.1591 526.614 56.5227 525.614 56.0227C524.614 55.5227 523.333 55.2727 521.773 55.2727C519.636 55.2727 517.856 55.7652 516.432 56.75C515.023 57.7197 514.318 58.9545 514.318 60.4545C514.318 61.7879 514.803 62.8409 515.773 63.6136C516.742 64.3864 518.258 65.0303 520.318 65.5455L525.5 66.8182C528.621 67.5758 530.947 68.7348 532.477 70.2955C534.008 71.8409 534.773 73.8333 534.773 76.2727C534.773 78.2727 534.197 80.0606 533.045 81.6364C531.909 83.2121 530.318 84.4545 528.273 85.3636C526.227 86.2727 523.848 86.7273 521.136 86.7273C517.576 86.7273 514.629 85.9545 512.295 84.4091C509.962 82.8636 508.485 80.6061 507.864 77.6364L512.955 76.3636C513.439 78.2424 514.356 79.6515 515.705 80.5909C517.068 81.5303 518.848 82 521.045 82C523.545 82 525.53 81.4697 527 80.4091C528.485 79.3333 529.227 78.0455 529.227 76.5455C529.227 75.3333 528.803 74.3182 527.955 73.5C527.106 72.6667 525.803 72.0455 524.045 71.6364L518.227 70.2727C515.03 69.5152 512.682 68.3409 511.182 66.75C509.697 65.1439 508.955 63.1364 508.955 60.7273C508.955 58.7576 509.508 57.0152 510.614 55.5C511.735 53.9848 513.258 52.7955 515.182 51.9318C517.121 51.0682 519.318 50.6364 521.773 50.6364C525.227 50.6364 527.939 51.3939 529.909 52.9091C531.894 54.4242 533.303 56.4242 534.136 58.9091ZM547.847 73.2727L547.756 66.6364H548.847L564.119 51.0909H570.756L554.483 67.5455H554.028L547.847 73.2727ZM542.847 86V39.4545H548.21V86H542.847ZM565.028 86L551.392 68.7273L555.21 65L571.847 86H565.028Z" fill="#D9D9D9"/>
<path d="M120 50V80L130 70V60L120 50Z" fill="#D9D9D9"/>
<path d="M10 50V80L0 70V60L10 50Z" fill="#D9D9D9"/>
<path d="M50 10L40 20V110L50 120V10Z" fill="#D9D9D9"/>
<path d="M80 10L90 20V110L80 120V10Z" fill="#D9D9D9"/>
<path d="M65 0L60 5.90909V125.591L65 130L70 125.591V5.90909L65 0Z" fill="#D9D9D9"/>
<path d="M110 40L100 30V60L110 52.5V40Z" fill="#D9D9D9"/>
<path d="M20 40L30 30V60L20 52.5V40Z" fill="#D9D9D9"/>
<path d="M110 60L100 70V80L110 70V60Z" fill="#D9D9D9"/>
<path d="M20 60L30 70V80L20 70V60Z" fill="#D9D9D9"/>
<path d="M100 90L110 80V90L100 100V90Z" fill="#D9D9D9"/>
<path d="M30 90L20 80V90L30 100V90Z" fill="#D9D9D9"/>
</svg>
